<svg width="24" height="24" viewBox="0 0 24 24" fill="none" xmlns="http://www.w3.org/2000/svg">
<path d="M14 2C15.11 2 16 2.89 16 4V6H20C21.11 6 22 6.89 22 8V8.44824C21.4554 8.15682 20.8428 8.00006 20.2139 8C19.927 8 19.6514 8.11424 19.4492 8.31641L11.4473 16.3184C11.0042 16.7617 10.7019 17.3268 10.5791 17.9414L10.0205 20.7334C10.0029 20.8214 9.99702 20.911 10.002 21H4C2.89 21 2 20.11 2 19L2.00977 8C2.00977 6.89 2.89 6 4 6H8V4C8 2.89 8.89 2 10 2H14ZM22 19C22 20.11 21.11 21 20 21H15.1172C15.3205 20.8732 15.5104 20.7239 15.6816 20.5527L21.0371 15.1973L22 14.2334V19ZM17.7676 12.2432C18.2793 12.2905 18.7587 12.5146 19.1221 12.8779C19.4854 13.2413 19.7095 13.7207 19.7568 14.2324L14.5596 19.4307C14.3378 19.6522 14.0554 19.8029 13.748 19.8643L11.7344 20.2666L12.1367 18.252C12.1982 17.945 12.349 17.6629 12.5703 17.4414L17.7676 12.2432ZM20.4141 9.5957C21.0671 9.65493 21.6379 10.0003 22 10.5059V11.9863L21.0469 12.9395C20.662 12.0472 19.9506 11.3355 19.0586 10.9502L20.4141 9.5957ZM10 6H14V4H10V6Z" fill="white"/>
</svg>
